<svg width="77" height="77" viewBox="0 0 77 77" fill="none" xmlns="http://www.w3.org/2000/svg">
<g id="distance 1" clip-path="url(#clip0_2827_9686)">
<g id="Group">
<path id="Vector" d="M62.7172 36.1094C62.0119 36.1094 61.3476 35.7772 60.9243 35.2129L51.5112 22.6621C48.3073 18.3902 47.8003 12.7694 50.1884 7.99324C52.5767 3.21707 57.3773 0.25 62.7172 0.25C68.0571 0.25 72.858 3.21692 75.246 7.99324C77.6341 12.7694 77.1273 18.3902 73.9233 22.6621L64.5102 35.2129C64.0869 35.7772 63.4228 36.1094 62.7172 36.1094ZM14.2753 76.75C13.5699 76.75 12.9056 76.4179 12.4823 75.8535L3.06921 63.3027C-0.134676 59.0308 -0.641489 53.41 1.74645 48.6339C4.13453 43.8575 8.9352 40.8906 14.2753 40.8906C19.6153 40.8906 24.416 43.8577 26.8041 48.6339C29.1922 53.41 28.6852 59.0308 25.4813 63.3027L16.0682 75.8535C15.6449 76.4179 14.9806 76.75 14.2753 76.75Z" fill="url(#paint0_linear_2827_9686)"/>
<path id="Vector_2" d="M76.7449 64.3489C76.7449 71.1871 71.1817 76.7503 64.3435 76.7503H14.2739C14.9793 76.7503 15.6436 76.4181 16.0669 75.8538L18.7563 72.2678H64.3436C68.7101 72.2678 72.2626 68.7154 72.2626 64.3489C72.2626 59.9824 68.7101 56.4299 64.3436 56.4299H54.5489C47.7109 56.4299 42.1476 50.8668 42.1476 44.0286C42.1476 37.1903 47.7107 31.6272 54.5489 31.6272H58.2336L60.9231 35.2131C61.3464 35.7775 62.0107 36.1096 62.7161 36.1096H54.5489C50.1825 36.1096 46.63 39.6621 46.63 44.0286C46.63 48.395 50.1823 51.9475 54.5489 51.9475H64.3436C71.1817 51.9475 76.7449 57.5106 76.7449 64.3489ZM67.1983 14.4446C67.1983 16.9202 65.1916 18.927 62.7159 18.927C60.2403 18.927 58.2335 16.9202 58.2335 14.4446C58.2335 11.9689 60.2403 9.96216 62.7159 9.96216C65.1916 9.96216 67.1983 11.9689 67.1983 14.4446ZM18.7563 55.0852C18.7563 57.5609 16.7496 59.5676 14.2739 59.5676C11.7983 59.5676 9.7915 57.5609 9.7915 55.0852C9.7915 52.6096 11.7983 50.6028 14.2739 50.6028C16.7496 50.6028 18.7563 52.6096 18.7563 55.0852Z" fill="url(#paint1_linear_2827_9686)"/>
</g>
</g>
<defs>
<linearGradient id="paint0_linear_2827_9686" x1="38.4963" y1="76.75" x2="38.4963" y2="0.25" gradientUnits="userSpaceOnUse">
<stop stop-color="#2586DA"/>
<stop offset="1" stop-color="#9CDBFF"/>
</linearGradient>
<linearGradient id="paint1_linear_2827_9686" x1="43.2682" y1="76.7503" x2="43.2682" y2="9.96216" gradientUnits="userSpaceOnUse">
<stop stop-color="#9FB1FF"/>
<stop offset="0.9973" stop-color="#C1E2FF"/>
</linearGradient>
<clipPath id="clip0_2827_9686">
<rect width="76.5" height="76.5" fill="white" transform="translate(0.25 0.25)"/>
</clipPath>
</defs>
</svg>
