<svg width="75" height="75" viewBox="0 0 75 75" fill="none" xmlns="http://www.w3.org/2000/svg">
<g id="free-icon-car-engine-1711842 1" clip-path="url(#clip0_2827_9628)">
<path id="Vector" d="M26.6143 11.374H39.6773V20.0827H26.6143V11.374Z" fill="#C5D3DD"/>
<path id="Vector_2" d="M33.1455 11.374H39.677V20.0827H33.1455V11.374Z" fill="#9FACBA"/>
<path id="Vector_3" d="M2.52002 35.323H15.7282V48.3861H2.52002V35.323Z" fill="#575F64"/>
<path id="Vector_4" d="M52.8853 35.323H70.3027V57.0948H52.8853V35.323Z" fill="#32393F"/>
<path id="Vector_5" d="M55.0623 26.6143H48.3856L44.0312 30.9686V61.4491L48.3856 65.8034H55.0623C56.2654 65.8034 57.2395 64.8294 57.2395 63.6263V28.7914C57.2395 27.5883 56.2654 26.6143 55.0623 26.6143Z" fill="#575F64"/>
<path id="Vector_6" d="M48.3857 20.0827V65.8034H28.7911C28.2253 65.8034 27.6589 65.5857 27.2671 65.1503L19.1679 57.0947H17.9053L13.4058 53.4372V30.9686L17.9053 26.6142V20.0827C17.9053 18.8631 18.8629 17.9055 20.0824 17.9055H46.2086C47.4281 17.9055 48.3857 18.8631 48.3857 20.0827Z" fill="#575F64"/>
<path id="Vector_7" d="M48.3857 20.0827V65.8034H33.1455V17.9055H46.2086C47.4281 17.9055 48.3857 18.8631 48.3857 20.0827Z" fill="#32393F"/>
<path id="Vector_8" d="M2.51995 57.0947C1.31683 57.0947 0.342773 56.1207 0.342773 54.9175V28.7914C0.342773 27.5883 1.31683 26.6143 2.51995 26.6143C3.72307 26.6143 4.69713 27.5883 4.69713 28.7914V54.9175C4.69713 56.1207 3.72307 57.0947 2.51995 57.0947Z" fill="#7C8388"/>
<path id="Vector_9" d="M48.3857 11.374C48.3857 12.5929 47.4281 13.5511 46.2086 13.5511H20.0824C18.8629 13.5511 17.9053 12.5929 17.9053 11.374C17.9053 10.1544 18.8629 9.19678 20.0824 9.19678H46.2086C47.4281 9.19678 48.3857 10.1544 48.3857 11.374Z" fill="#E0F4FF"/>
<path id="Vector_10" d="M39.3284 40.8964L34.974 47.428C34.5391 48.0375 33.8423 48.3862 33.1455 48.3862C32.7101 48.3862 32.3183 48.2552 31.926 48.0375C30.9247 47.3412 30.6633 45.9913 31.3165 44.9894L33.1455 42.2901L33.45 41.8546H28.7912C28.0076 41.8546 27.2671 41.4192 26.8754 40.7224C26.483 39.9825 26.5267 39.1547 26.9627 38.4579L31.317 31.9264C31.7519 31.3169 32.4487 30.9688 33.1455 30.9688C33.581 30.9688 33.9727 31.0555 34.3651 31.3169C35.3664 32.0137 35.6277 33.3636 34.9746 34.3649L33.1455 37.0648L32.8405 37.5003H37.4999C38.2834 37.5003 39.0239 37.9357 39.4157 38.6325C39.808 39.3724 39.7644 40.2002 39.3284 40.8964Z" fill="#FFD396"/>
<path id="Vector_11" d="M46.2086 13.5511H33.1455V9.19678H46.2086C47.4281 9.19678 48.3857 10.1544 48.3857 11.374C48.3857 12.5929 47.4281 13.5511 46.2086 13.5511Z" fill="#C5D3DD"/>
<path id="Vector_12" d="M34.974 34.3649L33.1455 37.0648V30.9688C33.5809 30.9688 33.9727 31.0555 34.3651 31.3169C35.3663 32.0137 35.6277 33.3636 34.974 34.3649Z" fill="#FFB64C"/>
<path id="Vector_13" d="M39.3283 40.8964L34.974 47.4279C34.5391 48.0374 33.8423 48.3861 33.1455 48.3861V42.29L33.4505 41.8546H33.1455V37.5002H37.4998C38.2834 37.5002 39.0239 37.9357 39.4156 38.6325C39.808 39.3724 39.7643 40.2002 39.3283 40.8964Z" fill="#FFB64C"/>
<path id="Vector_14" d="M11.2284 26.6143C10.0253 26.6143 9.05127 27.5883 9.05127 28.7914V54.9175C9.05127 56.1207 10.0253 57.0947 11.2284 57.0947H17.9051V26.6143H11.2284Z" fill="#7C8388"/>
<path id="Vector_15" d="M72.4798 61.4492H68.1254C66.9223 61.4492 65.9482 60.4752 65.9482 59.272V33.1459C65.9482 31.9428 66.9223 30.9688 68.1254 30.9688H72.4798C73.6829 30.9688 74.6569 31.9428 74.6569 33.1459V59.272C74.6569 60.4752 73.6829 61.4492 72.4798 61.4492Z" fill="#575F64"/>
</g>
<defs>
<clipPath id="clip0_2827_9628">
<rect width="74.3143" height="74.3143" fill="white" transform="translate(0.342773 0.343018)"/>
</clipPath>
</defs>
</svg>
