<svg width="71" height="71" viewBox="0 0 71 71" fill="none" xmlns="http://www.w3.org/2000/svg">
<g id="free-icon-jerrycan-3347952 1">
<g id="Group">
<path id="Vector" d="M24.881 6.92664L16.256 15.5427L12.6037 11.894C12.0462 11.3369 12.0462 10.4339 12.6037 9.87683L19.2095 3.27789C19.7671 2.72085 20.6712 2.72085 21.2287 3.27789L24.881 6.92664Z" fill="#F1F1F1"/>
<path id="Vector_2" d="M21.2303 3.27825C20.6727 2.72121 19.7686 2.72121 19.2111 3.27825L18.1377 4.35052L19.8437 6.05479C20.2237 6.43435 20.2237 7.04991 19.8437 7.42948L13.9897 13.2773L16.2577 15.543L24.8827 6.92688L21.2303 3.27825Z" fill="#E2E2E2"/>
<path id="Vector_3" d="M29.5238 6.99199L16.3218 20.1804L13.3586 17.2203C13.0439 16.906 13.0439 16.3964 13.3586 16.082L25.4212 4.03186C25.7359 3.71757 26.246 3.71757 26.5606 4.03186L29.5238 6.99199Z" fill="#497285"/>
<path id="Vector_4" d="M26.5601 4.03186C26.2454 3.71757 25.7353 3.71757 25.4206 4.03186L23.9068 5.54411L24.3133 5.95007C24.8586 6.49487 24.8586 7.37805 24.3133 7.92285L14.1821 18.0436L16.3213 20.1804L29.5234 6.99199L26.5601 4.03186Z" fill="#426778"/>
<path id="Vector_5" d="M53.458 2.86072H33.6502C32.3221 2.86072 31.0482 3.38741 30.108 4.32657L13.6529 20.7646C12.7128 21.7037 12.1855 22.9764 12.1855 24.303V63.1356C12.1855 65.8991 14.4286 68.1399 17.1951 68.1399H53.4581C56.2244 68.1399 58.4676 65.8991 58.4676 63.1356V7.86503C58.4675 5.1015 56.2244 2.86072 53.458 2.86072V2.86072ZM53.6762 11.7345C53.153 12.2572 52.4298 12.5803 51.6304 12.5803H36.1022C34.5047 12.5803 33.2095 11.2866 33.2095 9.69068C33.2095 8.89203 33.533 8.16963 34.0563 7.64688C34.5795 7.12414 35.3027 6.80106 36.1021 6.80106H51.6303C53.2278 6.80106 54.5229 8.09478 54.5229 9.69068C54.5231 10.4893 54.1996 11.2117 53.6762 11.7345Z" fill="#EF483C"/>
<g id="Group_2">
<path id="Vector_6" d="M53.4563 2.86011H49.5117C52.2781 2.86011 54.5213 5.10089 54.5213 7.86442V63.135C54.5213 65.8985 52.2782 68.1393 49.5117 68.1393H53.4563C56.2226 68.1393 58.4658 65.8985 58.4658 63.135V7.86442C58.4658 5.10089 56.2227 2.86011 53.4563 2.86011Z" fill="#DE4135"/>
</g>
<path id="Vector_7" d="M47.5046 26.1181L48.8794 24.7448C49.6496 23.9753 49.6496 22.7279 48.8794 21.9586C48.1092 21.1891 46.8604 21.1891 46.0902 21.9586L44.7154 23.3318C44.3455 23.7013 43.844 23.9089 43.3208 23.9089H27.3921C26.8689 23.9089 26.3674 23.7013 25.9975 23.3318L24.6227 21.9586C23.8525 21.1891 22.6037 21.1891 21.8335 21.9586C21.0633 22.728 21.0633 23.9755 21.8335 24.7448L23.2083 26.1181C23.5782 26.4876 23.786 26.9886 23.786 27.5112V54.7193C23.786 55.2418 23.5782 55.743 23.2083 56.1125L21.8337 57.4857C21.0634 58.2552 21.0634 59.5026 21.8337 60.272C22.6039 61.0414 23.8526 61.0414 24.6228 60.272L25.9976 58.8986C26.3675 58.5291 26.8691 58.3215 27.3922 58.3215H43.321C43.8441 58.3215 44.3457 58.5291 44.7155 58.8986L46.0904 60.2718C46.8606 61.0413 48.1093 61.0413 48.8795 60.2718C49.6497 59.5024 49.6497 58.2549 48.8795 57.4856L47.5047 56.1123C47.1348 55.7428 46.927 55.2418 46.927 54.7192V27.5112C46.927 26.9888 47.1347 26.4876 47.5046 26.1181Z" fill="#D13A2E"/>
</g>
</g>
</svg>
