<svg width="24" height="24" viewBox="0 0 24 24" fill="none" xmlns="http://www.w3.org/2000/svg">
<g id="icn_location">
<path id="Vector" d="M12 22C10.6467 20.8032 9.39234 19.4911 8.24999 18.0774C6.53571 15.9545 4.5 12.7929 4.5 9.78016C4.49926 8.24153 4.93876 6.73725 5.76288 5.4577C6.58701 4.17815 7.75871 3.18085 9.1297 2.592C10.5007 2.00316 12.0094 1.84925 13.4647 2.14975C14.9201 2.45025 16.2568 3.19165 17.3057 4.28012C18.004 5.00094 18.5575 5.85819 18.9341 6.80227C19.3108 7.74635 19.5031 8.7585 19.5 9.78016C19.5 12.7929 17.4643 15.9545 15.75 18.0774C14.6076 19.4911 13.3533 20.8032 12 22ZM12 6.44748C11.1475 6.44748 10.3299 6.7986 9.72714 7.4236C9.12435 8.0486 8.7857 8.89628 8.7857 9.78016C8.7857 10.664 9.12435 11.5117 9.72714 12.1367C10.3299 12.7617 11.1475 13.1128 12 13.1128C12.8525 13.1128 13.67 12.7617 14.2728 12.1367C14.8756 11.5117 15.2143 10.664 15.2143 9.78016C15.2143 8.89628 14.8756 8.0486 14.2728 7.4236C13.67 6.7986 12.8525 6.44748 12 6.44748Z" fill="#828282"/>
</g>
</svg>
