<svg width="24" height="24" viewBox="0 0 24 24" fill="none" xmlns="http://www.w3.org/2000/svg">
<g id="icn_phone">
<path id="Vector" d="M21.7221 18.6307L18.9023 21.4279C18.4861 21.8547 17.9344 21.9993 17.3971 22C15.0209 21.9288 12.7748 20.7616 10.9307 19.5631C7.90367 17.3609 5.12624 14.6303 3.38307 11.3305C2.7145 9.94681 1.93004 8.1813 2.00499 6.63681C2.01167 6.05581 2.16824 5.4856 2.57742 5.1111L5.39719 2.29275C5.98272 1.7947 6.54897 1.9669 6.92367 2.54703L9.19219 6.84873C9.43095 7.35835 9.29399 7.90438 8.93775 8.26853L7.89889 9.30686C7.83475 9.39471 7.79392 9.49471 7.79289 9.60355C8.19125 11.1456 9.3981 12.5669 10.4642 13.545C11.5304 14.5231 12.6763 15.8483 14.1639 16.162C14.3477 16.2133 14.5729 16.2313 14.7045 16.109L15.913 14.88C16.3296 14.5642 16.9311 14.4099 17.3758 14.6681H17.397L21.4889 17.0838C22.0896 17.4603 22.1522 18.188 21.7221 18.6307Z" fill="#828282"/>
</g>
</svg>
