<svg width="126" height="99" viewBox="0 0 126 99" fill="none" xmlns="http://www.w3.org/2000/svg">
<g id="illustration" opacity="0.1">
<g id="Group 1691">
<g id="car">
<g id="Group">
<path id="Vector" d="M39.9489 78.1814C40.4421 78.1814 40.915 77.9704 41.2637 77.5948C41.6124 77.2191 41.8083 76.7097 41.8083 76.1784V64.1605C41.8083 63.6292 41.6124 63.1198 41.2637 62.7441C40.915 62.3685 40.4421 62.1575 39.9489 62.1575H6.47953C5.98638 62.1575 5.51343 62.3685 5.16473 62.7441C4.81602 63.1198 4.62012 63.6292 4.62012 64.1605V76.1784C4.62012 76.7097 4.81602 77.2191 5.16473 77.5948C5.51343 77.9704 5.98638 78.1814 6.47953 78.1814H39.9489Z" fill="#E8F0EA"/>
<path id="Vector_2" d="M15.7778 70.1699C15.7778 70.5639 15.7058 70.9541 15.5658 71.3181C15.4258 71.6822 15.2206 72.0129 14.962 72.2915C14.7033 72.5702 14.3963 72.7912 14.0583 72.942C13.7204 73.0928 13.3582 73.1704 12.9924 73.1704C12.6266 73.1704 12.2644 73.0928 11.9265 72.942C11.5886 72.7912 11.2815 72.5702 11.0229 72.2915C10.7642 72.0129 10.559 71.6822 10.4191 71.3181C10.2791 70.9541 10.207 70.5639 10.207 70.1699C10.207 69.3741 10.5005 68.6109 11.0229 68.0482C11.5452 67.4856 12.2537 67.1694 12.9924 67.1694C13.7312 67.1694 14.4396 67.4856 14.962 68.0482C15.4844 68.6109 15.7778 69.3741 15.7778 70.1699Z" fill="#333333"/>
<path id="Vector_3" d="M33.4358 73.1704C33.8016 73.1704 34.1638 73.0928 34.5017 72.942C34.8397 72.7912 35.1467 72.5702 35.4054 72.2915C35.664 72.0129 35.8692 71.6822 36.0092 71.3181C36.1492 70.9541 36.2212 70.5639 36.2212 70.1699C36.2212 69.7759 36.1492 69.3857 36.0092 69.0217C35.8692 68.6576 35.664 68.3269 35.4054 68.0482C35.1467 67.7696 34.8397 67.5486 34.5017 67.3978C34.1638 67.247 33.8016 67.1694 33.4358 67.1694C32.6971 67.1694 31.9886 67.4856 31.4662 68.0482C30.9439 68.6109 30.6504 69.3741 30.6504 70.1699C30.6504 70.9657 30.9439 71.7289 31.4662 72.2915C31.9886 72.8542 32.6971 73.1704 33.4358 73.1704Z" fill="#333333"/>
<path id="Vector_4" d="M4.74565 58.4479L4.78284 58.1514H2.7598C2.26665 58.1514 1.79371 57.9404 1.445 57.5647C1.09629 57.1891 0.900391 56.6796 0.900391 56.1484C0.900391 55.6172 1.09629 55.1077 1.445 54.7321C1.79371 54.3565 2.26665 54.1454 2.7598 54.1454H5.26257L5.86502 49.1139C6.09652 47.1816 6.9737 45.4064 8.33241 44.1205C9.69112 42.8346 11.4383 42.126 13.2469 42.1274H33.1798C34.9894 42.1274 36.7371 42.8381 38.0952 44.1263C39.4534 45.4146 40.329 47.1922 40.5579 49.1259L41.1492 54.1454H43.6668C44.16 54.1454 44.6329 54.3565 44.9816 54.7321C45.3303 55.1077 45.5262 55.6172 45.5262 56.1484C45.5262 56.6796 45.3303 57.1891 44.9816 57.5647C44.6329 57.9404 44.16 58.1514 43.6668 58.1514H41.6252L41.6624 58.4398C42.7854 58.8305 43.7644 59.5948 44.4586 60.6227C45.1529 61.6506 45.5267 62.8892 45.5262 64.1604V76.1784C45.5262 77.7721 44.9385 79.3005 43.8924 80.4274C42.8463 81.5543 41.4275 82.1874 39.948 82.1874H39.9369V87.1949C39.9369 87.9917 39.643 88.7559 39.1199 89.3194C38.5969 89.8828 37.8875 90.1994 37.1477 90.1994C36.408 90.1994 35.6986 89.8828 35.1755 89.3194C34.6525 88.7559 34.3586 87.9917 34.3586 87.1949V82.1874H12.0569V87.1949C12.0569 87.9917 11.763 88.7559 11.2399 89.3194C10.7169 89.8828 10.0075 90.1994 9.26774 90.1994C8.52802 90.1994 7.8186 89.8828 7.29554 89.3194C6.77248 88.7559 6.47862 87.9917 6.47862 87.1949V82.1874C4.99918 82.1874 3.58034 81.5543 2.53422 80.4274C1.4881 79.3005 0.900391 77.7721 0.900391 76.1784V64.1604C0.900217 62.8931 1.27202 61.6581 1.96265 60.6321C2.65328 59.6061 3.62737 58.8416 4.74565 58.4479ZM9.55409 49.6267L8.53141 58.1514H37.8766L36.8651 49.6307C36.7503 48.6648 36.3129 47.7771 35.6346 47.1335C34.9564 46.4898 34.0837 46.1343 33.1798 46.1334H13.2469C12.3429 46.1332 11.4698 46.4877 10.7908 47.1306C10.1118 47.7736 9.67352 48.6609 9.55781 49.6267H9.55409ZM39.948 78.1814C40.4412 78.1814 40.9141 77.9703 41.2628 77.5947C41.6115 77.2191 41.8074 76.7096 41.8074 76.1784V64.1604C41.8074 63.6292 41.6115 63.1197 41.2628 62.7441C40.9141 62.3684 40.4412 62.1574 39.948 62.1574H6.47862C5.98548 62.1574 5.51253 62.3684 5.16382 62.7441C4.81511 63.1197 4.61921 63.6292 4.61921 64.1604V76.1784C4.61921 76.7096 4.81511 77.2191 5.16382 77.5947C5.51253 77.9703 5.98548 78.1814 6.47862 78.1814H39.948Z" fill="#333333"/>
</g>
</g>
<g id="coin">
<circle id="Ellipse 206" cx="75.1343" cy="49.2711" r="39.4132" transform="rotate(-11.1389 75.1343 49.2711)" fill="#E8F0EA" stroke="#333333" stroke-width="5.08557"/>
<circle id="Ellipse 207" cx="75.1339" cy="49.2704" r="30.3439" transform="rotate(-11.1389 75.1339 49.2704)" fill="#E8F0EA" stroke="#333333" stroke-width="3.39038"/>
<path id="&#226;&#130;&#189;" d="M69.406 59.6122L66.4012 60.2039L65.6054 56.1622L68.6102 55.5705L68.146 53.2129L65.1411 53.8045L64.3011 49.5383L67.306 48.9466L65.3017 38.7675L75.0483 36.8484C77.4625 36.3731 79.5549 36.6349 81.3256 37.6339C83.122 38.6278 84.2388 40.235 84.676 42.4554C84.9659 43.9274 84.8593 45.2831 84.3563 46.5224C83.879 47.7567 83.0677 48.7846 81.9222 49.6062C80.8024 50.4228 79.4592 50.9853 77.8926 51.2938L73.3467 52.1888L73.811 54.5465L83.519 52.635L84.3148 56.6767L74.6068 58.5882L75.3657 62.4428L70.165 63.4668L69.406 59.6122ZM76.7058 47.0958C77.7075 46.8986 78.4673 46.4898 78.9855 45.8695C79.4987 45.2242 79.6644 44.44 79.4827 43.5169C79.3009 42.5938 78.8503 41.9309 78.1307 41.5284C77.4063 41.1009 76.5432 40.9857 75.5416 41.1829L71.3425 42.0097L72.5067 47.9226L76.7058 47.0958Z" fill="#333333"/>
</g>
</g>
</g>
</svg>
