<svg width="24" height="24" viewBox="0 0 24 24" fill="none" xmlns="http://www.w3.org/2000/svg">
<g id="mail">
<path id="Vector" d="M21.2857 4H2.71429C2.3192 4 2 4.325 2 4.72727V19.2727C2 19.675 2.3192 20 2.71429 20H21.2857C21.6808 20 22 19.675 22 19.2727V4.72727C22 4.325 21.6808 4 21.2857 4ZM19.4821 6.475L12.4397 12.0545C12.2656 12.1932 12.0223 12.1932 11.8482 12.0545L4.80357 6.475C4.77702 6.45413 4.75754 6.42533 4.74787 6.39262C4.7382 6.35992 4.73882 6.32495 4.74965 6.29263C4.76048 6.2603 4.78097 6.23224 4.80825 6.21237C4.83554 6.19249 4.86824 6.18181 4.90179 6.18182H19.3839C19.4175 6.18181 19.4502 6.19249 19.4775 6.21237C19.5047 6.23224 19.5252 6.2603 19.5361 6.29263C19.5469 6.32495 19.5475 6.35992 19.5378 6.39262C19.5282 6.42533 19.5087 6.45413 19.4821 6.475Z" fill="#828282"/>
</g>
</svg>
