<svg width="85" height="85" viewBox="0 0 85 85" fill="none" xmlns="http://www.w3.org/2000/svg">
<g id="planet-earth 1" clip-path="url(#clip0_2827_9649)">
<path id="Vector" d="M63.6053 48.755C63.6053 33.6589 51.4 21.4214 36.3439 21.4214C21.2877 21.4214 9.08252 33.6589 9.08252 48.755C9.08252 63.8511 21.2877 76.0886 36.3439 76.0886C51.4 76.0886 63.6053 63.8511 63.6053 48.755Z" fill="#89C8FD"/>
<path id="Vector_2" d="M36.3444 21.4214C34.9452 21.4214 33.5702 21.5272 32.228 21.7313C45.3305 23.721 55.3724 35.0619 55.3724 48.755C55.3724 62.4481 45.3305 73.789 32.228 75.7787C33.5702 75.9828 34.9452 76.0886 36.3444 76.0886C51.4005 76.0886 63.6057 63.8511 63.6057 48.755C63.6057 33.6589 51.4005 21.4214 36.3444 21.4214Z" fill="#60B6FF"/>
<g id="Group">
<path id="Vector_3" d="M32.8001 32.0432C28.6008 34.6748 25.4508 38.8849 27.8131 43.6223C30.1754 48.359 35.4248 46.5169 40.2807 45.8592C45.1365 45.2014 41.4618 60.2018 44.3489 63.886C47.2359 67.5702 55.3723 60.2018 54.5853 55.4644C53.4193 48.4509 53.0106 45.9904 62.4593 40.9907L62.4847 40.9811C59.2998 30.1966 49.6591 22.1946 38.0508 21.4753L38.0495 21.5165C38.0495 21.5165 36.9995 29.4115 32.8001 32.0432Z" fill="#BAEB6C"/>
<path id="Vector_4" d="M53.4238 27.4519C53.4258 27.4532 53.4278 27.4552 53.4298 27.4565C53.4278 27.4552 53.4258 27.4539 53.4238 27.4519Z" fill="#BAEB6C"/>
<path id="Vector_5" d="M56.7578 30.6404C56.7578 30.6408 56.7582 30.6412 56.7586 30.6412C56.7582 30.6408 56.7582 30.6408 56.7578 30.6404Z" fill="#BAEB6C"/>
<path id="Vector_6" d="M18.2334 61.1231C16.9724 59.1999 20.4646 54.6761 21.2516 51.2549C22.0393 47.8336 17.3146 48.0966 15.8711 46.9123C14.4276 45.7279 12.4587 40.5964 11.0152 39.4121L10.7846 39.2302C9.68451 42.1958 9.08252 45.4048 9.08252 48.7544C9.08252 57.7893 13.4549 65.799 20.1934 70.7752L20.2016 70.2024C20.2016 70.2024 21.2516 65.7286 18.2334 61.1231Z" fill="#BAEB6C"/>
<path id="Vector_7" d="M54.5856 55.4641C54.5799 55.4299 54.5742 55.3963 54.5685 55.3621C54.047 57.469 53.2815 59.4797 52.3037 61.3617C53.8543 59.5316 54.8904 57.3005 54.5856 55.4641Z" fill="#BAEB6C"/>
</g>
<path id="Vector_8" d="M38.0511 21.4753L38.0499 21.5165C38.0499 21.5165 37.9624 22.1756 37.7368 23.1749C47.2965 26.7931 54.2954 35.6431 55.2586 46.2432C56.4632 44.5956 58.6665 42.9975 62.4597 40.9907L62.485 40.9811C59.3002 30.1966 49.6594 22.1946 38.0511 21.4753Z" fill="#96D629"/>
<path id="Vector_9" d="M36.3074 84.0273C34.3766 84.0273 32.4319 83.8689 30.4884 83.5476C21.1981 82.0135 13.061 76.9536 7.57656 69.3C2.09209 61.6465 -0.0833164 52.315 1.45145 43.0253C1.56234 42.3523 2.19982 41.8974 2.87088 42.0083C3.54384 42.1191 3.99946 42.7547 3.88793 43.4277C2.46153 52.0666 4.48422 60.7441 9.58467 67.8616C14.6851 74.979 22.2512 79.6841 30.8914 81.1111C48.7275 84.0577 65.6314 71.9437 68.5774 54.1102C70.0038 45.4713 67.9811 36.7937 62.8806 29.6763C57.7808 22.5588 50.2141 17.8538 41.5745 16.4268C40.9016 16.3159 40.446 15.6803 40.5568 15.0073C40.6684 14.3344 41.3052 13.8794 41.9763 13.9903C51.2672 15.5244 59.4043 20.5843 64.8881 28.2378C70.3726 35.8914 72.548 45.2229 71.0138 54.5126C69.4797 63.8023 64.4192 71.9387 56.765 77.4225C50.7115 81.7594 43.6093 84.0273 36.3074 84.0273Z" fill="#09A66D"/>
<path id="Vector_10" d="M28.8099 30.8019C15.627 28.5651 7.44873 11.9666 7.44873 11.9666C7.44873 11.9666 20.645 -1.00542 33.828 1.23082C47.011 3.46707 55.1892 20.0656 55.1892 20.0656C55.1892 20.0656 41.9929 33.0382 28.8099 30.8019Z" fill="#49CB5C"/>
<path id="Vector_11" d="M33.8276 1.22899C31.31 0.801896 28.793 0.930532 26.3667 1.41656C38.999 4.25289 46.7913 20.0637 46.7913 20.0637C46.7913 20.0637 38.1531 28.5544 27.8723 30.6125C28.1822 30.6822 28.4939 30.7462 28.8095 30.8001C41.9925 33.0363 55.1888 20.0637 55.1888 20.0637C55.1888 20.0637 47.0106 3.46524 33.8276 1.22899Z" fill="#07B128"/>
<path id="Vector_12" d="M54.444 18.6877L41.5519 16.5129L29.5095 1.00684C28.5489 1.06323 27.5971 1.18617 26.658 1.36233L37.9526 15.9052L28.2314 14.2652L19.9366 3.5333C19.1584 3.88436 18.4018 4.25696 17.6725 4.6435L24.641 13.6594L8.56653 10.9473C7.84478 11.5778 7.44873 11.9669 7.44873 11.9669C7.44873 11.9669 7.71361 12.5036 8.22181 13.3939L24.2088 16.0909L15.3424 22.9466C15.9134 23.5346 16.5122 24.1157 17.1383 24.6797L27.5229 16.6504L37.8145 18.3867L23.8178 29.2155C24.6866 29.6211 25.5845 29.9722 26.5103 30.2548L41.1286 18.9462L54.029 21.1222C54.7767 20.4702 55.1892 20.0659 55.1892 20.0659C55.1892 20.0659 54.9339 19.5488 54.444 18.6877Z" fill="#09A66D"/>
<path id="Vector_13" d="M64.1553 14.69C67.6918 6.32172 79.9452 3.50439 79.9452 3.50439C79.9452 3.50439 86.4651 14.2547 82.9286 22.623C79.3927 30.9913 67.1386 33.8087 67.1386 33.8087C67.1386 33.8087 60.6188 23.0584 64.1553 14.69Z" fill="#49CB5C"/>
<path id="Vector_14" d="M79.9456 3.50439C79.9456 3.50439 77.1593 4.14567 73.8604 5.72353C75.5529 9.30886 78.2359 16.5854 75.6841 22.623C73.8344 27.0005 69.5989 29.859 65.98 31.5895C66.6333 32.9735 67.1396 33.8087 67.1396 33.8087C67.1396 33.8087 79.393 30.9913 82.9295 22.623C86.4654 14.2547 79.9456 3.50439 79.9456 3.50439Z" fill="#07B128"/>
<path id="Vector_15" d="M83.9304 15.721L74.5076 19.6739L80.6942 4.88327C80.2513 4.0088 79.9452 3.50439 79.9452 3.50439C79.9452 3.50439 79.3622 3.63873 78.4136 3.93529L72.0198 19.2208L68.0549 9.46538C67.3832 10.0579 66.7495 10.7017 66.1748 11.3994L70.6676 22.4538L66.4473 32.5432C66.8592 33.3474 67.1386 33.8087 67.1386 33.8087C67.1386 33.8087 67.7723 33.6629 68.7913 33.3398L73.149 22.9221L83.9266 18.4015C83.9982 17.5061 83.9944 16.6082 83.9304 15.721Z" fill="#09A66D"/>
</g>
<defs>
<clipPath id="clip0_2827_9649">
<rect width="83.0571" height="83.0571" fill="white" transform="translate(0.97168 0.971436)"/>
</clipPath>
</defs>
</svg>
