<svg width="77" height="77" viewBox="0 0 77 77" fill="none" xmlns="http://www.w3.org/2000/svg">
<g id="save-money 1" clip-path="url(#clip0_2827_9613)">
<path id="Vector" d="M53.5625 63.8064L64.7563 58.5194C67.2248 57.273 70.2358 58.1868 71.5955 60.5936L48.8429 75.3116C45.7921 76.7194 42.3687 77.1068 39.0805 76.4166L23.3883 72.0122C21.9445 71.6074 20.3991 71.7762 19.0767 72.4844L15.7954 74.2403L16.237 58.2354L16.3678 58.2385C21.0569 54.9067 27.2153 54.4757 32.3229 57.1223L33.2622 57.6088C34.731 58.3693 36.3523 58.7885 38.0061 58.8333L47.2309 59.0881C50.1255 59.1672 52.6593 61.0552 53.5625 63.8064Z" fill="#F7CAA5"/>
<path id="Vector_2" d="M56.6349 35.7294C56.6349 45.2414 48.9236 52.9526 39.4116 52.9526C29.8996 52.9526 22.189 45.2414 22.189 35.7294C22.189 26.2174 29.8996 18.5061 39.4116 18.5061C48.9236 18.5061 56.6349 26.2174 56.6349 35.7294Z" fill="#FEDB41"/>
<path id="Vector_3" d="M39.4112 34.3548C37.8123 34.3548 36.5155 33.0585 36.5155 31.459C36.5155 29.8601 37.8123 28.5632 39.4112 28.5632C41.0108 28.5632 42.307 29.8601 42.307 31.459C42.307 32.1635 42.8782 32.7347 43.5827 32.7347C44.2871 32.7347 44.8583 32.1635 44.8583 31.459C44.8552 28.8821 43.0495 26.6591 40.5274 26.1278V24.9661C40.5274 24.2616 39.9562 23.6904 39.2518 23.6904C38.5473 23.6904 37.9761 24.2616 37.9761 24.9661V26.2056C35.3444 26.9238 33.6496 29.4795 34.0127 32.1834C34.3752 34.8879 36.683 36.9067 39.4112 36.9061C40.9983 36.8936 42.3001 38.1612 42.3294 39.7477C42.3587 41.3348 41.1042 42.649 39.5177 42.6945C39.3745 42.6634 39.2275 42.6578 39.083 42.6783C37.618 42.5182 36.5099 41.2775 36.5155 39.8037C36.5155 39.0992 35.9443 38.5281 35.2398 38.5281C34.5353 38.5281 33.9641 39.0992 33.9641 39.8037C33.956 42.2622 35.6023 44.4186 37.9761 45.059V46.3334C37.9761 47.0379 38.5473 47.609 39.2518 47.609C39.9562 47.609 40.5274 47.0379 40.5274 46.3334V45.135C43.2594 44.5632 45.1168 42.0181 44.8297 39.2419C44.5419 36.4657 42.203 34.3554 39.4112 34.3548Z" fill="#00ACEA"/>
<path id="Vector_4" d="M53.9016 67.4103H53.8667L38.7039 66.9923C37.9994 66.973 37.4444 66.3863 37.4638 65.6824C37.4831 64.9779 38.0698 64.4229 38.7737 64.4423L52.5157 64.821C52.4733 64.6129 52.4185 64.408 52.3518 64.2062C51.6143 61.9676 49.5532 60.4309 47.1969 60.3636L37.9714 60.1083C36.1264 60.0559 34.3163 59.5881 32.6763 58.741L31.7376 58.2552C27.0567 55.8154 21.4028 56.2109 17.1074 59.2786C16.5331 59.6866 15.7364 59.5514 15.3284 58.9771C14.9205 58.4028 15.0556 57.6061 15.6299 57.1982C20.7033 53.5755 27.3818 53.1083 32.9105 55.9898L33.8498 56.4756C35.1479 57.1465 36.5805 57.5158 38.0412 57.5582L47.2666 57.8129C49.4243 57.8709 51.4705 58.784 52.9542 60.3518C54.4379 61.919 55.2376 64.0125 55.1766 66.1695C55.1579 66.8609 54.5923 67.4109 53.9009 67.4103H53.9016Z" fill="#EDB288"/>
<g id="Group">
<path id="Vector_5" d="M39.4109 14.9202C38.7064 14.9202 38.1353 14.349 38.1353 13.6445V1.52578C38.1353 0.821303 38.7064 0.250122 39.4109 0.250122C40.1154 0.250122 40.6866 0.821303 40.6866 1.52578V13.6445C40.6866 14.349 40.1154 14.9202 39.4109 14.9202Z" fill="#00ACEA"/>
<path id="Vector_6" d="M48.9788 14.9203C48.2743 14.9203 47.7031 14.3491 47.7031 13.6447V7.9042C47.7031 7.19972 48.2743 6.62854 48.9788 6.62854C49.6833 6.62854 50.2544 7.19972 50.2544 7.9042V13.6447C50.2544 14.3491 49.6833 14.9203 48.9788 14.9203Z" fill="#00ACEA"/>
<path id="Vector_7" d="M29.8435 14.9203C29.1391 14.9203 28.5679 14.3491 28.5679 13.6447V7.9042C28.5679 7.19972 29.1391 6.62854 29.8435 6.62854C30.548 6.62854 31.1192 7.19972 31.1192 7.9042V13.6447C31.1192 14.3491 30.548 14.9203 29.8435 14.9203Z" fill="#00ACEA"/>
</g>
<path id="Vector_8" d="M15.796 74.2403L15.7462 76.0417L5.63184 75.7645L6.24288 53.5663L16.3585 53.8441L16.2376 58.2354L15.796 74.2403Z" fill="#00EFD1"/>
</g>
<defs>
<clipPath id="clip0_2827_9613">
<rect width="76.5" height="76.5" fill="white" transform="translate(0.25 0.250122)"/>
</clipPath>
</defs>
</svg>
