<svg width="81" height="81" viewBox="0 0 81 81" fill="none" xmlns="http://www.w3.org/2000/svg">
<g id="thumb-up 1">
<g id="Group 1558">
<path id="Vector" d="M24.3022 39.3795H25.811C26.1612 39.3815 26.5039 39.2774 26.7939 39.081C27.0839 38.8846 27.3077 38.6051 27.436 38.2791C28.0087 36.7941 29.9182 33.8233 36.2361 29.4714C38.7816 27.7283 40.9449 25.4843 42.5935 22.8766C44.2422 20.2689 45.3416 17.3523 45.8246 14.3052C45.962 13.3785 46.4274 12.5318 47.1362 11.9192C47.8451 11.3067 48.7502 10.9689 49.6871 10.9673H49.7253C50.7447 10.9669 51.7249 11.3603 52.4613 12.0653C53.1977 12.7703 53.6333 13.7325 53.6772 14.751C53.8654 19.0899 53.4203 26.1664 49.2282 30.5527H67.4425C68.613 30.5527 69.7356 31.0176 70.5633 31.8452C71.391 32.6727 71.8561 33.7952 71.8563 34.9657C71.8563 36.1363 71.3913 37.259 70.5636 38.0868C69.7358 38.9145 68.6131 39.3795 67.4425 39.3795L66.167 39.456C66.1207 39.4589 66.0772 39.4793 66.0454 39.5131C66.0136 39.5469 65.9958 39.5916 65.9957 39.638C65.9957 39.662 66.0005 39.6858 66.0096 39.7079C66.0188 39.7301 66.0323 39.7503 66.0492 39.7672C66.0662 39.7842 66.0864 39.7977 66.1085 39.8068C66.1307 39.816 66.1545 39.8208 66.1785 39.8208H66.362C67.0391 39.8169 67.7077 39.9705 68.3152 40.2695C68.9227 40.5684 69.4523 41.0045 69.8623 41.5434C70.2723 42.0822 70.5514 42.7089 70.6776 43.3741C70.8037 44.0393 70.7735 44.7248 70.5892 45.3763C70.3112 46.1666 69.8278 46.8687 69.1886 47.4105C68.5494 47.9522 67.7776 48.314 66.9524 48.4588C66.9524 48.4588 69.9928 49.3764 69.8154 53.3627C69.6938 56.1042 65.6241 56.5875 65.6241 56.5875C65.6241 56.5875 71.5589 63.784 60.8019 66.751C50.0449 69.718 39.213 67.8981 39.213 67.8981L24.7473 66.384L24.3022 39.3795Z" fill="#FED19A"/>
<path id="Vector_2" d="M20.8511 38.4622H25.5555V67.1046H20.8511V38.4622Z" fill="white"/>
<path id="Vector_3" d="M20.0636 35.2744H10.6808C9.8361 35.2744 9.15137 35.9591 9.15137 36.8038V69.2353C9.15137 70.08 9.8361 70.7647 10.6808 70.7647H20.0636C20.9082 70.7647 21.593 70.08 21.593 69.2353V36.8038C21.593 35.9591 20.9082 35.2744 20.0636 35.2744Z" fill="#575B6D"/>
<path id="Vector_4" d="M15.3718 44.3854C16.7642 44.3854 17.893 43.2566 17.893 41.8642C17.893 40.4718 16.7642 39.343 15.3718 39.343C13.9794 39.343 12.8506 40.4718 12.8506 41.8642C12.8506 43.2566 13.9794 44.3854 15.3718 44.3854Z" fill="#EEEFEE"/>
</g>
</g>
</svg>
